<?xml version="1.0" encoding="utf-8"?>
<!-- Generator: Adobe Illustrator 25.4.1, SVG Export Plug-In . SVG Version: 6.00 Build 0)  -->
<svg version="1.1" id="Layer_1" xmlns="http://www.w3.org/2000/svg" xmlns:xlink="http://www.w3.org/1999/xlink" x="0px" y="0px"
	 viewBox="0 0 48 48" style="enable-background:new 0 0 48 48;" xml:space="preserve">
<style type="text/css">
	.st0{fill:#00a9ce;}
</style>
<g>
	<path class="st0" d="M43.3,5.9H4.7c-0.8,0-1.4,0.6-1.4,1.4v10.4c0,0.8,0.6,1.4,1.4,1.4s1.4-0.6,1.4-1.4v-9h35.8v16.1h-12
		c-0.4,0-0.8,0.2-1.1,0.5l-2.5-8.6c-0.2-0.6-0.8-1-1.4-1s-1.2,0.5-1.4,1.1l-2.8,11.5l-2.2-7.8c-0.2-0.6-0.7-1-1.4-1l0,0
		c-0.6,0-1.2,0.4-1.4,1l-1.4,4.4H8.4l-3.7-0.1c-0.4,0-0.8,0.1-1.1,0.4s-0.4,0.6-0.4,1V42c0,0.8,0.6,1.4,1.4,1.4h38.6
		c0.8,0,1.4-0.6,1.4-1.4V7.3C44.8,6.5,44.1,5.9,43.3,5.9z M41.9,40.6H6.1V27.7l2.2,0.1c0,0,0,0,0.1,0h7.2c0.6,0,1.2-0.4,1.4-1
		l0.3-0.8l2.4,8.5c0.2,0.6,0.8,1.1,1.4,1c0.7,0,1.2-0.5,1.4-1.1l2.8-11.7l2.3,7.9c0.2,0.6,0.7,1,1.4,1l0,0c0.6,0,1.2-0.4,1.4-1
		l0.8-2.9h10.9v12.9H41.9z"/>
</g>
</svg>
